<mxfile host="app.diagrams.net" modified="2021-08-08T14:36:28.808Z" agent="5.0 (Macintosh; Intel Mac OS X 10_14_0) AppleWebKit/537.36 (KHTML, like Gecko) Chrome/91.0.4472.114 Safari/537.36" etag="p-gDCaz02u3YolVWSbf2" version="14.9.5" type="github">
  <diagram id="GybosYcbpuEw8ZiaArgY" name="第 1 页">
    <mxGraphModel dx="1186" dy="669" grid="1" gridSize="10" guides="1" tooltips="1" connect="1" arrows="1" fold="1" page="1" pageScale="1" pageWidth="827" pageHeight="1169" math="0" shadow="0">
      <root>
        <mxCell id="0" />
        <mxCell id="1" parent="0" />
        <mxCell id="8bTTT9q9gN-KrYn0D-Ar-1" value="&lt;font face=&quot;dengxian&quot;&gt;&lt;span style=&quot;font-size: 14px&quot;&gt;输入&lt;/span&gt;&lt;/font&gt;" style="shape=loopLimit;whiteSpace=wrap;html=1;spacing=2;align=left;labelBackgroundColor=none;labelBorderColor=none;fillColor=#e1d5e7;strokeColor=#9673a6;rounded=0;horizontal=1;verticalAlign=middle;labelPosition=center;verticalLabelPosition=middle;perimeterSpacing=4;strokeWidth=2;spacing=10" parent="1" vertex="1">
          <mxGeometry x="299" y="30" width="181" height="80" as="geometry" />
        </mxCell>
        <mxCell id="8bTTT9q9gN-KrYn0D-Ar-2" value="&lt;p style=&quot;color: rgb(255 , 255 , 255) ; text-indent: 0in ; line-height: normal ; margin: 0pt 0in ; word-break: normal ; font-size: 15px&quot;&gt;&lt;/p&gt;&lt;span style=&quot;color: black ; font-family: &amp;#34;dengxian&amp;#34; ; font-size: 15px ; text-indent: 0in&quot;&gt;实现类&lt;br&gt;&lt;/span&gt;" style="rounded=0;whiteSpace=wrap;html=1;strokeWidth=2;align=left;fillColor=#d5e8d4;spacing=10;strokeColor=#82b366;" parent="1" vertex="1">
          <mxGeometry x="79" y="30" width="180" height="80" as="geometry" />
        </mxCell>
        <mxCell id="8bTTT9q9gN-KrYn0D-Ar-3" value="区域背景" style="rounded=0;whiteSpace=wrap;html=1;fontSize=16;strokeColor=#56517e;strokeWidth=2;align=left;verticalAlign=top;fillColor=#E6E6E6;" parent="1" vertex="1">
          <mxGeometry x="70" y="630" width="710" height="270" as="geometry" />
        </mxCell>
        <mxCell id="8bTTT9q9gN-KrYn0D-Ar-4" value="&lt;p style=&quot;color: rgb(255 , 255 , 255) ; text-indent: 0in ; line-height: normal ; margin: 0pt 0in ; word-break: normal ; font-size: 15px&quot;&gt;&lt;/p&gt;&lt;span style=&quot;color: black ; font-family: &amp;#34;dengxian&amp;#34; ; font-size: 15px ; text-indent: 0in&quot;&gt;接口&lt;br&gt;&lt;/span&gt;" style="rounded=0;whiteSpace=wrap;html=1;strokeWidth=2;align=left;fillColor=#fff2cc;spacing=10;strokeColor=#d6b656;" parent="1" vertex="1">
          <mxGeometry x="79" y="130" width="180" height="80" as="geometry" />
        </mxCell>
        <mxCell id="8bTTT9q9gN-KrYn0D-Ar-5" value="判断" style="ellipse;whiteSpace=wrap;html=1;strokeWidth=2;fontSize=14;" parent="1" vertex="1">
          <mxGeometry x="530" y="30" width="120" height="80" as="geometry" />
        </mxCell>
        <mxCell id="8bTTT9q9gN-KrYn0D-Ar-6" value="扩展点" style="rounded=1;whiteSpace=wrap;html=1;fontSize=14;strokeWidth=2;arcSize=22;align=left;spacing=10;fillColor=#FFCCFF;" parent="1" vertex="1">
          <mxGeometry x="79" y="230" width="140" height="70" as="geometry" />
        </mxCell>
        <mxCell id="8bTTT9q9gN-KrYn0D-Ar-12" value="排除&lt;br&gt;依赖" style="shape=switch;whiteSpace=wrap;html=1;fontSize=14;strokeColor=#000000;strokeWidth=2;fillColor=#FFFF66;" parent="1" vertex="1">
          <mxGeometry x="302.5" y="230" width="110" height="100" as="geometry" />
        </mxCell>
        <mxCell id="8bTTT9q9gN-KrYn0D-Ar-13" value="互&lt;br style=&quot;font-size: 17px;&quot;&gt;斥" style="html=1;shadow=0;dashed=0;align=center;verticalAlign=middle;shape=mxgraph.arrows2.twoWayArrow;dy=0.4;dx=34;fontSize=17;strokeColor=#000000;strokeWidth=2;fillColor=#FFFF66;rotation=90;horizontal=0;" parent="1" vertex="1">
          <mxGeometry x="495" y="270" width="165" height="70" as="geometry" />
        </mxCell>
        <mxCell id="8bTTT9q9gN-KrYn0D-Ar-14" value="&lt;p style=&quot;color: rgb(255 , 255 , 255) ; text-indent: 0in ; line-height: normal ; margin: 0pt 0in ; word-break: normal ; font-size: 15px&quot;&gt;&lt;/p&gt;&lt;span style=&quot;color: black ; font-family: &amp;#34;dengxian&amp;#34; ; font-size: 15px ; text-indent: 0in&quot;&gt;抛出异常&lt;br&gt;&lt;/span&gt;" style="rounded=0;whiteSpace=wrap;html=1;strokeWidth=2;align=left;spacing=10;strokeColor=#b85450;fillColor=#FF9999;" parent="1" vertex="1">
          <mxGeometry x="79" y="325" width="180" height="80" as="geometry" />
        </mxCell>
        <mxCell id="8bTTT9q9gN-KrYn0D-Ar-15" value="线程锁--加锁" style="shape=trapezoid;perimeter=trapezoidPerimeter;whiteSpace=wrap;html=1;fixedSize=1;fontSize=17;strokeColor=#6c8ebf;strokeWidth=2;fillColor=#dae8fc;" parent="1" vertex="1">
          <mxGeometry x="70" y="440" width="160" height="70" as="geometry" />
        </mxCell>
        <mxCell id="8bTTT9q9gN-KrYn0D-Ar-16" value="线程锁--解锁" style="shape=trapezoid;perimeter=trapezoidPerimeter;whiteSpace=wrap;html=1;fixedSize=1;fontSize=17;strokeColor=#82b366;strokeWidth=2;fillColor=#d5e8d4;" parent="1" vertex="1">
          <mxGeometry x="290" y="460" width="160" height="70" as="geometry" />
        </mxCell>
        <mxCell id="8bTTT9q9gN-KrYn0D-Ar-17" value="返回值" style="shape=tape;whiteSpace=wrap;html=1;strokeWidth=2;size=0.19;fontSize=17;strokeColor=#6c8ebf;align=left;spacing=10;fillColor=#dae8fc;" parent="1" vertex="1">
          <mxGeometry x="540" y="137.5" width="120" height="65" as="geometry" />
        </mxCell>
        <mxCell id="8bTTT9q9gN-KrYn0D-Ar-18" value="线程" style="whiteSpace=wrap;html=1;shape=mxgraph.basic.octagon2;align=left;verticalAlign=middle;dx=15;fontSize=17;strokeColor=#10739e;strokeWidth=2;fillColor=#b1ddf0;spacing=10；" parent="1" vertex="1">
          <mxGeometry x="307.5" y="340" width="100" height="100" as="geometry" />
        </mxCell>
        <mxCell id="8bTTT9q9gN-KrYn0D-Ar-19" value="&lt;div&gt;存储&lt;/div&gt;&lt;div&gt;&lt;br&gt;&lt;/div&gt;" style="shape=cylinder3;whiteSpace=wrap;html=1;boundedLbl=1;backgroundOutline=1;size=7;rounded=0;fontSize=16;strokeColor=#d79b00;strokeWidth=2;fillColor=#ffe6cc;align=left;spacing=10;" parent="1" vertex="1">
          <mxGeometry x="290.75" y="130" width="197.5" height="80" as="geometry" />
        </mxCell>
      </root>
    </mxGraphModel>
  </diagram>
</mxfile>
